<svg width="74" height="44" viewBox="0 0 74 44" fill="none" xmlns="http://www.w3.org/2000/svg">
<path d="M34.1409 12.4029L22.7767 0.956799C22.2521 0.428374 21.394 0.420962 20.8601 0.940244L16.6883 4.99798C16.1544 5.51726 16.1469 6.3666 16.6716 6.89502L28.0357 18.3411C28.5604 18.8695 29.4185 18.8769 29.9523 18.3577L34.1241 14.2999C34.658 13.7806 34.6655 12.9313 34.1409 12.4029Z" fill="#F1F1F1"/>
<path d="M70.8949 17.1304L58.1087 4.42003C56.3984 2.71978 53.6193 2.71382 51.9015 4.40672C50.1837 6.09962 50.1777 8.8503 51.8881 10.5505L64.6742 23.2609C66.3846 24.9612 69.1637 24.9671 70.8815 23.2742C72.5992 21.5814 72.6053 18.8307 70.8949 17.1304Z" fill="#ABABAB"/>
<path d="M23.5469 32.8948L8.30428 17.8497C7.77427 17.3265 6.91613 17.3277 6.38758 17.8523L2.58337 21.6281C2.05482 22.1527 2.05601 23.0021 2.58602 23.5252L17.8286 38.5703C18.3586 39.0935 19.2168 39.0923 19.7453 38.5677L23.5495 34.7919C24.0781 34.2673 24.0769 33.4179 23.5469 32.8948Z" fill="#F1F1F1"/>
<path d="M17.1014 4.65112L2.33983 18.7606C1.04758 19.9957 1.01163 22.0339 2.25955 23.313L3.27744 24.3562C4.52535 25.6353 6.58456 25.6709 7.87682 24.4357L22.6384 10.3262C23.9307 9.09109 23.9666 7.05291 22.7187 5.77387L21.7008 4.73058C20.4529 3.45153 18.3937 3.41595 17.1014 4.65112Z" fill="#F1F1F1"/>
<path d="M49.1907 38.7871C47.3773 37.0233 47.3519 34.1384 49.1338 32.3438L64.168 17.2011C65.95 15.4062 68.8647 15.381 70.6781 17.1448C72.4915 18.9086 72.5167 21.7934 70.7348 23.5883L55.7006 38.731C53.9186 40.5256 51.0041 40.5508 49.1907 38.7871Z" fill="#ABABAB"/>
<path d="M51.4088 1.93004L18.4177 35.7443C17.3778 36.8101 17.4078 38.5086 18.4846 39.5379L21.0793 42.0179C22.1562 43.0472 23.8722 43.0176 24.9121 41.9517L57.9032 8.13749C58.9431 7.07162 58.9132 5.37314 57.8363 4.34384L55.2417 1.86382C54.1648 0.83452 52.4488 0.86417 51.4088 1.93004Z" fill="#F1F1F1"/>
<path d="M22.2271 31.6585L20.0586 34.4756L20.7362 30.1829" stroke="black"/>
<path d="M20.7362 30.0488L22.2271 31.6585L20.0586 34.3415L20.7362 30.0488Z" fill="black" stroke="black"/>
<path d="M53.6703 12.7439L58.0073 8.31708L55.0257 13.9512L53.6703 12.7439Z" fill="black" stroke="black"/>
</svg>
